<svg width="50" height="50" viewBox="0 0 50 50" fill="none" xmlns="http://www.w3.org/2000/svg">
<path d="M18.7496 20.8333V12.5C18.7496 10.8424 19.4081 9.25269 20.5802 8.08058C21.7523 6.90848 23.342 6.25 24.9996 6.25C26.6572 6.25 28.2469 6.90848 29.419 8.08058C30.5911 9.25269 31.2496 10.8424 31.2496 12.5V20.8333M37.4996 16.6667L39.41 41.5062C39.4321 41.7925 39.3948 42.0802 39.3005 42.3514C39.2061 42.6225 39.0567 42.8712 38.8617 43.0819C38.6667 43.2926 38.4302 43.4607 38.1671 43.5757C37.904 43.6906 37.62 43.75 37.3329 43.75H12.6663C12.3792 43.75 12.0952 43.6906 11.8321 43.5757C11.569 43.4607 11.3325 43.2926 11.1375 43.0819C10.9425 42.8712 10.7931 42.6225 10.6987 42.3514C10.6044 42.0802 10.5671 41.7925 10.5892 41.5062L12.4996 16.6667H37.4996Z" stroke="#83573D" stroke-width="2" stroke-linecap="round" stroke-linejoin="round"/>
</svg>
