<svg width="50" height="50" viewBox="0 0 50 50" fill="none" xmlns="http://www.w3.org/2000/svg">
<path d="M16.667 28.333H33.333C35.7642 28.333 38.0963 29.2995 39.8154 31.0186C41.5343 32.7376 42.5 35.069 42.5 37.5C42.5 38.8261 41.9728 40.0975 41.0352 41.0352C40.0975 41.9728 38.8261 42.5 37.5 42.5H12.5C11.1739 42.5 9.90253 41.9728 8.96484 41.0352C8.02716 40.0975 7.5 38.8261 7.5 37.5C7.5 35.069 8.46569 32.7376 10.1846 31.0186C11.9037 29.2995 14.2358 28.333 16.667 28.333ZM25 7.5C26.8785 7.5 28.6804 8.24594 30.0088 9.57422C31.3371 10.9025 32.0829 12.7045 32.083 14.583C32.083 16.4615 31.3371 18.2634 30.0088 19.5918C28.6804 20.9202 26.8786 21.667 25 21.667C23.1214 21.667 21.3196 20.9202 19.9912 19.5918C18.6629 18.2634 17.917 16.4615 17.917 14.583C17.9171 12.7045 18.6629 10.9025 19.9912 9.57422C21.3196 8.24594 23.1215 7.5 25 7.5Z" stroke="#83573D" stroke-width="2.5"/>
</svg>
